<?xml version="1.0" encoding="UTF-8"?><svg id="Ebene_1" xmlns="http://www.w3.org/2000/svg" viewBox="0 0 256.83 231.47"><path d="m187.12,0c-18.12,0-37.71,7.11-56.12,24.03,3.15,4.57,7.08,16.54,6.66,16.54-.02,0-.05-.03-.1-.1-3.26-4.75-6.87-9.24-10.79-13.44C109.02,9.53,89.64,2.21,71.49,2.21c-56.86,0-101.61,71.81-46.12,127.3l101.95,101.95,101.95-101.95C287.13,71.66,244.59,0,187.12,0Zm19.46,82.07l-79.27,79.27-19.99-19.99-13.32-13.32-25.7-25.7c-22.5-22.5,10.81-55.81,33.31-33.31l25.7,25.7,45.96-45.96c23.65-23.65,56.96,9.66,33.31,33.31Z"/></svg>